# xmcd
# Copyright (C) 1995-1998 Ti Kan
#
# Track frame offsets:
#       150
#       22893
#       41635
#       50713
#       63172
#       82054
#       92532
#       113121
#       127799
#       143745
#       159124
#       172912
#       184687
#       201266
#       219968
#       238990
#       264920
#       284844
#       299263
#
# Disc length: 4213 seconds
#
# Revision: 2
# Processed by: cddbd v1.5.1PL0 Copyright (c) Steve Scherf et al.
# Submitted via: CD-Transfer v1.0
#
DISCID=0b107313
DTITLE=Swingbesa - Jetzt Häts Doch Scho Di Ganz Wuchä Nöd Grägnät
DYEAR=2005
DGENRE=
TTITLE0=Parkett
TTITLE1=Sport 05
TTITLE2=Nachtrag I
TTITLE3=Ah - Uh
TTITLE4=Liäbä Bundesrat
TTITLE5=Nachtrag Ii
TTITLE6=Rockäd Nöd
TTITLE7=Soustall
TTITLE8=Meh!
TTITLE9=Lied
TTITLE10=Allerhand
TTITLE11=Nachtrag Iii
TTITLE12=Mr. Dabulego
TTITLE13=Froh
TTITLE14=Tüüf Im Rap
TTITLE15=Du and Ich
TTITLE16=Showgschäft
TTITLE17=A Was Glaubsch Du?
TTITLE18=Letschtä Bus
EXTD=
EXTT0=
EXTT1=
EXTT2=
EXTT3=
EXTT4=
EXTT5=
EXTT6=
EXTT7=
EXTT8=
EXTT9=
EXTT10=
EXTT11=
EXTT12=
EXTT13=
EXTT14=
EXTT15=
EXTT16=
EXTT17=
EXTT18=
PLAYORDER=
